Coordinates
version=1
nRows=24
nColumns=24
inDegrees=yes

Units are S.I. units (second, meters, Newtons, ...)
Angles are in degrees.

endheader
time	pelvis_tilt	pelvis_list	pelvis_rotation	pelvis_tx	pelvis_ty	pelvis_tz	hip_flexion_r	hip_adduction_r	hip_rotation_r	knee_angle_r	ankle_angle_r	subtalar_angle_r	mtp_angle_r	hip_flexion_l	hip_adduction_l	hip_rotation_l	knee_angle_l	ankle_angle_l	subtalar_angle_l	mtp_angle_l	lumbar_extension	lumbar_bending	lumbar_rotation
      4.61000000	     -4.16503233	     -5.13124193	      2.56172321	     -1.88075020	      0.70061473	      0.29593789	      6.77242354	     12.79451110	     12.84041708	    -10.50209135	     14.93128828	    -13.63619601	      0.00000000	     30.93627957	     -3.34757554	     -1.09114392	    -63.89571590	      6.01945109	    -10.99555197	      0.00000000	    -12.25999041	      5.03348867	     -0.09354979
      4.62000000	     -4.14993134	     -4.60180987	      2.09645448	     -1.86753764	      0.70178791	      0.29593752	      4.38323026	     12.11511265	     14.76529265	     -8.49618655	     14.09485188	    -15.31580389	      0.00000000	     31.89423465	     -2.90917947	     -1.55908167	    -60.81035349	      6.52988694	    -11.98101342	      0.00000000	    -12.62187180	      4.29537915	      0.25178661
      4.63000000	     -4.30927805	     -4.13763916	      1.58971054	     -1.85449679	      0.70231427	      0.29585378	      2.39878282	     11.44983341	     15.94522415	     -6.77348271	     13.56114341	    -16.36624152	      0.00000000	     32.85462671	     -2.52132332	     -1.98646312	    -57.29411323	      6.78570157	    -12.98088392	      0.00000000	    -12.80263484	      3.64061751	      0.76360352
      4.64000000	     -4.47494427	     -3.78799711	      1.05604111	     -1.84152209	      0.70235595	      0.29568189	      0.53093893	     10.86421735	     16.93367667	     -5.21108250	     13.23989049	    -17.05523554	      0.00000000	     33.60860095	     -2.24537421	     -2.32829320	    -53.35226309	      7.00895967	    -13.80411249	      0.00000000	    -12.99612460	      3.16410393	      1.23643132
      4.65000000	     -4.81355371	     -3.58262709	      0.44059352	     -1.82864680	      0.70175022	      0.29552356	     -0.96626695	     10.42956363	     17.54822166	     -3.95514403	     13.26777334	    -17.13759290	      0.00000000	     34.33191598	     -2.12563519	     -2.57234021	    -48.99485019	      7.16543741	    -14.50235742	      0.00000000	    -12.99194407	      2.87130715	      1.81498206
      4.66000000	     -4.74189976	     -3.39254902	     -0.08016142	     -1.81561164	      0.70123960	      0.29532889	     -2.92724858	      9.98982876	     18.21076431	     -2.66252823	     13.10847587	    -17.58904814	      0.00000000	     34.29874683	     -1.99842262	     -2.67849975	    -44.12052172	      7.51429349	    -14.75266004	      0.00000000	    -13.49813329	      2.58303629	      2.24658205
      4.67000000	     -4.96520280	     -3.38197656	     -0.76113452	     -1.80264506	      0.69998929	      0.29521982	     -4.37428553	      9.74598148	     18.72275317	     -1.74977048	     13.30287694	    -17.44812516	      0.00000000	     34.32297440	     -2.07529804	     -2.62565557	    -38.82485159	      7.72443821	    -15.03403493	      0.00000000	    -13.64480736	      2.51839280	      2.88955495
      4.68000000	     -4.82793496	     -3.42361612	     -1.34146835	     -1.78944605	      0.69879665	      0.29498584	     -6.19915707	      9.52301927	     19.18494989	     -0.89778663	     13.55730993	    -17.22898118	      0.00000000	     33.61752991	     -2.12136944	     -2.20450818	    -33.03758741	      7.89316760	    -15.18276473	      0.00000000	    -14.21254005	      2.51482664	      3.34649414
      4.69000000	     -4.79838545	     -3.61076783	     -2.03585929	     -1.77605764	      0.69710449	      0.29491519	     -7.78070051	      9.46674948	     19.58214405	     -0.34606288	     13.96049511	    -16.84130972	      0.00000000	     32.70806925	     -2.35241285	     -1.44724816	    -26.85191716	      7.77202836	    -15.64244139	      0.00000000	    -14.59669248	      2.64939887	      4.00711466
      4.70000000	     -4.46241184	     -3.89530108	     -2.69344693	     -1.76231435	      0.69540296	      0.29475379	     -9.68196500	      9.44061065	     20.11855501	      0.08572988	     14.53808241	    -16.14823539	      0.00000000	     31.12261693	     -2.65059574	      0.08338175	    -20.31812279	      7.13139998	    -16.63771327	      0.00000000	    -15.31433326	      2.89807583	      4.46346426
      4.71000000	     -4.19988739	     -4.41887200	     -3.61854501	     -1.74828704	      0.69331566	      0.29509984	    -11.39205537	      9.64981210	     20.80516931	      0.16857510	     15.15552877	    -15.24216462	      0.00000000	     29.35046754	     -3.45632376	      1.97770192	    -13.69644791	      5.82793203	    -18.38571715	      0.00000000	    -15.88286649	      3.32449043	      5.37643712
      4.72000000	     -3.77980969	     -5.26053233	     -4.44182005	     -1.73402006	      0.69092885	      0.29564168	    -13.18355530	     10.22042348	     21.39100170	     -0.07061055	     15.90678914	    -14.18167110	      0.00000000	     27.37812318	     -4.73626450	      4.17760268	     -7.43395857	      4.25924225	    -20.44253253	      0.00000000	    -16.63816867	      4.05021499	      6.11403906
      4.73000000	     -3.68385537	     -6.36195288	     -5.24421196	     -1.71959554	      0.68797057	      0.29631697	    -14.55755692	     11.08555770	     22.03933008	     -0.58603542	     16.48955389	    -13.04752869	      0.00000000	     26.07741098	     -6.40556301	      5.22582707	     -2.22015346	      3.39089320	    -21.00343459	      0.00000000	    -16.96244805	      5.10489684	      6.94066897
      4.74000000	     -3.56834778	     -7.39680296	     -5.89750767	     -1.70496088	      0.68503859	      0.29691021	    -15.78910971	     11.93056247	     22.42008236	     -1.47938259	     17.20480345	    -11.70869288	      0.00000000	     25.01608534	     -7.90871254	      5.71129418	      1.94292229	      3.12487028	    -20.53938927	      0.00000000	    -17.28932025	      6.03190747	      7.50571840
      4.75000000	     -3.50412909	     -8.23326756	     -6.52560476	     -1.69002045	      0.68238787	      0.29721946	    -16.81945641	     12.54315884	     22.57590790	     -2.65600034	     17.81021487	    -10.07149089	      0.00000000	     24.22994253	     -9.04197449	      5.58347067	      5.00580060	      3.27826767	    -19.39578807	      0.00000000	    -17.49869010	      6.79456235	      8.07966018
      4.76000000	     -3.33985620	     -8.75830995	     -6.98298864	     -1.67483791	      0.68020914	      0.29721619	    -17.64209211	     12.88847271	     21.90762470	     -4.32944992	     18.68483072	     -7.58870146	      0.00000000	     23.57908468	     -9.65953571	      5.54879696	      6.92576158	      3.74238130	    -18.06760135	      0.00000000	    -17.77101305	      7.18633488	      8.36464996
      4.77000000	     -3.27965513	     -9.00225725	     -7.24621990	     -1.65946270	      0.67828068	      0.29686084	    -18.01106116	     13.03141457	     20.53042311	     -6.48731606	     19.44088934	     -4.76492885	      0.00000000	     23.30462413	     -9.83459174	      6.15666698	      7.73000938	      3.99919894	    -17.52099845	      0.00000000	    -17.83440566	      7.31337802	      8.37502528
      4.78000000	     -3.20755667	     -8.90176316	     -7.37986522	     -1.64390789	      0.67683125	      0.29621626	    -18.02677240	     12.83970221	     18.60657806	     -9.12274238	     19.91258659	     -1.71812422	      0.00000000	     23.22915607	     -9.53160394	      7.28732541	      7.53371099	      3.84268404	    -17.84874200	      0.00000000	    -17.83796878	      7.06673688	      8.23535761
      4.79000000	     -3.19655900	     -8.44028112	     -7.45856036	     -1.62815650	      0.67572649	      0.29528265	    -17.56184400	     12.24874948	     16.14161754	    -12.30765666	     20.12473662	      1.61049025	      0.00000000	     23.46112645	     -8.73736871	      8.78867276	      6.32821418	      3.43294062	    -18.91178485	      0.00000000	    -17.67593102	      6.44342534	      8.00456734
      4.80000000	     -3.07549664	     -7.57980046	     -7.34239507	     -1.61221044	      0.67510427	      0.29395982	    -16.83886968	     11.18958791	     13.32465367	    -15.91989774	     19.80337670	      4.78695558	      0.00000000	     23.81475252	     -7.32471602	     10.41228905	      4.26753394	      2.67065895	    -20.16587221	      0.00000000	    -17.55856866	      5.37121626	      7.52534963
      4.81000000	     -2.97356764	     -6.48717764	     -7.27222242	     -1.59618005	      0.67476575	      0.29239749	    -15.70383629	      9.75999302	     10.44729852	    -20.04507800	     18.84774581	      7.65007267	      0.00000000	     24.35642730	     -5.54591954	     11.89821010	      1.50869646	      1.65643267	    -21.67934362	      0.00000000	    -17.38776021	      4.07368699	      7.13180397
      4.82000000	     -2.76260094	     -5.07880706	     -7.06327772	     -1.57993427	      0.67474156	      0.29056547	    -14.45092321	      7.91397513	      7.86664285	    -24.36656864	     17.22320934	      9.90901450	      0.00000000	     24.94850838	     -3.25260008	     12.87713471	     -1.78259394	      0.56521414	    -22.68370875	      0.00000000	    -17.27225018	      2.41666321	      6.56165021
      4.83000000	     -2.43948120	     -3.47347931	     -6.83946411	     -1.56351389	      0.67498036	      0.28875465	    -13.12157351	      5.79805364	      5.74641790	    -28.83277420	     14.96228634	     11.40358487	      0.00000000	     25.48069101	     -0.69188367	     13.07915988	     -5.33369792	     -0.36513046	    -23.04834747	      0.00000000	    -17.23615808	      0.49785905	      5.90251526
      4.84000000	     -2.26727893	     -2.04508197	     -6.61270007	     -1.54748916	      0.67503575	      0.28675044	    -11.32077954	      3.79522906	      3.85462420	    -33.57806367	     12.30326196	     12.54403229	      0.00000000	     26.25935597	      1.68562338	     12.82673342	     -9.05787631	     -0.93220544	    -22.90194055	      0.00000000	    -17.14062249	     -1.11874840	      5.45761287
